<?xml version="1.0" standalone="no"?><!-- Generator: Gravit.io --><svg xmlns="http://www.w3.org/2000/svg" xmlns:xlink="http://www.w3.org/1999/xlink" style="isolation:isolate" viewBox="0 0 325.8 699.2" width="325.8" height="699.2"><defs><clipPath id="_clipPath_dmrbMaLx6GtGv7DvJ4q81KJuEbfIB2EP"><rect width="325.8" height="699.2"/></clipPath></defs><g clip-path="url(#_clipPath_dmrbMaLx6GtGv7DvJ4q81KJuEbfIB2EP)"><linearGradient id="_lgradient_0" x1="0" y1="1" x2="1.0000000000000009" y2="4.440892098500626e-16" gradientTransform="matrix(325.846,0,0,699.2,0,0)" gradientUnits="userSpaceOnUse"><stop offset="2.608695652173913%" stop-opacity="1" style="stop-color:rgb(251,208,182)"/><stop offset="27.8478670598492%" stop-opacity="1" style="stop-color:rgb(244,169,197)"/><stop offset="51.31171766476304%" stop-opacity="1" style="stop-color:rgb(213,178,213)"/><stop offset="82.6059939353883%" stop-opacity="1" style="stop-color:rgb(193,187,222)"/><stop offset="99.1304347826087%" stop-opacity="1" style="stop-color:rgb(157,202,238)"/></linearGradient><path d=" M 22 662.1 L 22 644.1 L 28.3 644.1 C 33.7 644.1 35 644.5 36.9 646.4 C 39 648.7 39 649.5 38.8 664.2 L 38.5 679.6 L 30.3 679.9 L 22 680.2 L 22 662.1 L 22 662.1 Z  M 22 607.6 L 22 591.1 L 28.4 591.1 C 37.8 591.1 38 591.5 38 607.2 C 38 614.4 37.5 621.1 37 622.2 C 36.1 623.8 34.8 624.1 29 624.1 L 22 624.1 L 22 607.6 L 22 607.6 Z  M 52.1 695.6 C 59.9 690.1 60.5 688.2 60.8 667.2 C 61 655.1 60.8 647.3 60 644.5 C 58.8 640.3 55 635.3 51.5 633.3 C 49.6 632.3 49.6 632.2 52.3 630.1 C 58.1 625.5 59 621.9 59 603.2 C 59 593.7 58.5 585 57.9 583.4 C 56.7 580 51.5 574.4 47.8 572.5 C 45.7 571.4 40.1 571.1 22.5 571.1 L 0 571.1 L 0 635.2 L 0 699.2 L 23.9 698.9 L 47.8 698.6 L 52.1 695.6 L 52.1 695.6 Z  M 174.2 644.9 L 174.5 590.6 L 184.3 590.1 L 194.1 589.6 L 197.6 580.6 C 199.4 575.7 201 571.5 201 571.4 C 201 571.2 184.1 571.1 163.5 571.1 C 142.9 571.1 126 571.4 126.1 571.9 C 126.1 572.3 127.6 576.4 129.3 581.1 L 132.6 589.6 L 142.3 589.9 L 152 590.2 L 152 644 C 152 673.6 152.3 698.1 152.7 698.4 C 153 698.8 158 699.1 163.7 699.1 L 174 699.1 L 174.2 644.9 L 174.2 644.9 Z  M 317.1 695.6 C 324.7 690.2 325.5 687.4 325.5 665.6 C 325.5 648 325.3 646.3 323.3 642.6 C 320.2 636.8 314 631.3 301.4 623.2 C 294.8 618.9 289.8 615 289.2 613.5 C 288.5 612.1 288 606.8 288 601.6 C 288 593.3 288.2 592 289.9 591.1 C 292.6 589.7 301.3 589.8 302.8 591.3 C 303.6 592.1 304 595.8 304 601.3 L 304 610.2 L 314.8 609.9 L 325.5 609.6 L 325.8 599.3 C 326.1 587.1 325 582.3 320.7 577.4 C 315.8 571.8 313 571.1 296 571.1 C 278.1 571.1 274.8 572.2 269.9 579.8 L 267 584.5 L 267 601.9 C 267 621.6 267.5 623.6 274.4 630.3 C 276.7 632.5 283.8 637.9 290.2 642.2 C 296.7 646.5 302.4 651 303 652 C 304.1 654.1 304.4 674.9 303.4 677.5 C 302.6 679.5 291.1 679.8 289.2 677.9 C 288.4 677.1 288 673.1 288 666.4 L 288 656.1 L 277.5 656.1 L 267 656.1 L 267 670 C 267 685.4 267.6 688 272.3 693 C 277.7 698.6 279.7 699.1 297.2 698.8 C 312.8 698.6 312.8 698.6 317.1 695.6 L 317.1 695.6 Z  M 148 484.9 L 148 122.6 L 0 0 Q 0.3 541.1 0.7 541.1 Q 1.1 541.1 148 484.9 L 148 484.9 Z  M 325.6 1.1 Q 325.2 1.1 178.1 122.6 L 178 484.9 Q 323.8 541 325.3 541.1 C 325.7 541.1 325.8 1.1 325.6 1.1 L 325.6 1.1 Z " fill-rule="evenodd" fill="url(#_lgradient_0)"/></g></svg>